# xmcd
#
# Track frame offsets:
#	150
#	9523
#	22853
#	36933
#	48742
#	60760
#	73531
#	85395
#	95997
#	108287
#	119950
#	130709
#	144574
#	156070
#	170171
#	181405
#	191813
#	205093
#	215815
#
# Disc length: 3059 seconds
#
# Revision: 1
# Processed by: cddbd v1.5.1PL0 Copyright (c) Steve Scherf et al.
# Submitted via: audiograbber 1.83.01
#
DISCID=1a0bf113
DTITLE=Ray Charles - Sittin On Top Of The world
DYEAR=2004
DGENRE=Blues
TTITLE0=All to myself alone
TTITLE1=Alone in the city
TTITLE2=Baby let me hold your hand
TTITLE3=What have I done
TTITLE4=CC Rider
TTITLE5=Can anyone ask for more
TTITLE6=Can`t you see darling
TTITLE7=Hey now
TTITLE8=Honey Honey
TTITLE9=How long how long Blues
TTITLE10=I wonder who`s kissing her now
TTITLE11=I`m going to drown myself
TTITLE12=If I give you my love
TTITLE13=Kiss me baby
TTITLE14=Let`s have a ball
TTITLE15=Sitting on top of the world
TTITLE16=The snow is falling
TTITLE17=Th` ego song
TTITLE18=This love of mine
EXTD=
EXTT0=
EXTT1=
EXTT2=
EXTT3=
EXTT4=
EXTT5=
EXTT6=
EXTT7=
EXTT8=
EXTT9=
EXTT10=
EXTT11=
EXTT12=
EXTT13=
EXTT14=
EXTT15=
EXTT16=
EXTT17=
EXTT18=
PLAYORDER=
